<mxfile host="app.diagrams.net" modified="2024-03-19T06:56:29.213Z" agent="Mozilla/5.0 (Macintosh; Intel Mac OS X 10_15_7) AppleWebKit/537.36 (KHTML, like Gecko) Chrome/121.0.0.0 Safari/537.36" version="23.1.5" etag="NEmElMQYW2mzY7AAa8K1" type="github">
  <diagram name="Page-1" id="viNywy44pruIg0QlzwGm">
    <mxGraphModel>
      <root>
        <mxCell id="0" />
        <mxCell id="1" parent="0" />
      </root>
    </mxGraphModel>
  </diagram>
</mxfile>
